PathFileType	4	(X/Y/Z)	..\data\2015043\dynamic\2015043_C4_04.trc
DataRate	CameraRate	NumFrames	NumMarkers	Units	OrigDataRate	OrigDataStartFrame	OrigNumFrames
100.000000	100.000000	4	52	mm	100.000000	58	232
Frame#	Time	L_IAS			L_IPS			R_IPS			R_IAS			L_FTC			L_FLE			L_FME			L_FAX			L_TTC			L_FAL			L_TAM			L_FCC			L_FM1			L_FM2			L_FM5			R_FTC			R_FLE			R_FME			R_FAX			R_TTC			R_FAL			R_TAM			R_FCC			R_FM1			R_FM2			R_FM5			CV7			TV10			SXS			SJN			L_SIA			L_SRS			L_SAA			L_SAE			L_HLE			L_HME			L_UOA			L_RSP			L_UHE			L_HM2			L_HM5			R_SIA			R_SRS			R_SAA			R_SAE			R_HLE			R_HME			R_UOA			R_RSP			R_UHE			R_HM2			R_HM5			
		X1	Y1	Z1	X2	Y2	Z2	X3	Y3	Z3	X4	Y4	Z4	X5	Y5	Z5	X6	Y6	Z6	X7	Y7	Z7	X8	Y8	Z8	X9	Y9	Z9	X10	Y10	Z10	X11	Y11	Z11	X12	Y12	Z12	X13	Y13	Z13	X14	Y14	Z14	X15	Y15	Z15	X16	Y16	Z16	X17	Y17	Z17	X18	Y18	Z18	X19	Y19	Z19	X20	Y20	Z20	X21	Y21	Z21	X22	Y22	Z22	X23	Y23	Z23	X24	Y24	Z24	X25	Y25	Z25	X26	Y26	Z26	X27	Y27	Z27	X28	Y28	Z28	X29	Y29	Z29	X30	Y30	Z30	X31	Y31	Z31	X32	Y32	Z32	X33	Y33	Z33	X34	Y34	Z34	X35	Y35	Z35	X36	Y36	Z36	X37	Y37	Z37	X38	Y38	Z38	X39	Y39	Z39	X40	Y40	Z40	X41	Y41	Z41	X42	Y42	Z42	X43	Y43	Z43	X44	Y44	Z44	X45	Y45	Z45	X46	Y46	Z46	X47	Y47	Z47	X48	Y48	Z48	X49	Y49	Z49	X50	Y50	Z50	X51	Y51	Z51	X52	Y52	Z52	

59	0.58	-760.9431152343751	994.785583496094	113.8327178955077	-943.7349853515627	1013.545654296875	177.7296447753905	-947.735778808594	1017.668701171875	275.5990905761718	-778.7373657226565	1007.617004394531	354.1674499511718	-849.103942871094	899.3758544921877	59.11584854125967	-854.0750122070315	480.4141845703126	102.6917343139648	-856.6086425781252	477.2456970214845	220.8935089111328	-873.8572998046877	410.952117919922	100.7863388061523	-818.960144042969	396.6209411621095	159.5266723632812	-953.4265747070315	79.75221252441408	173.4914398193359	-922.1909179687502	88.05969238281251	263.8525390624999	-1003.742065429688	28.56993103027344	219.0661468505859	-797.907653808594	19.69186782836914	230.8969268798828	-798.563659667969	36.67381286621094	168.818374633789	-857.053405761719	25.42030906677247	122.3058547973632	-871.5083007812502	914.3317871093752	406.0353393554688	-698.8485107421876	512.9458618164064	403.8928833007812	-668.1003417968751	507.4930114746095	280.2565307617188	-712.5997314453126	449.4420166015626	409.0584411621094	-637.7435913085939	431.6366577148439	361.1476745605469	-810.675231933594	118.2634887695313	353.8468627929687	-757.9163208007814	128.9433746337891	275.3533325195312	-853.6997680664065	76.0832977294922	296.6471862792968	-652.7826538085939	48.69319152832033	318.7170104980469	-666.6682739257814	55.34807586669923	368.92724609375	-727.6596679687501	46.75960159301759	406.5034484863281	-882.9998779296877	1517.491333007813	203.347183227539	-951.271179199219	1291.384155273438	211.5710144042968	-718.7243041992189	1283.951538085938	230.4032135009765	-770.0270996093752	1436.31982421875	219.8780212402343	-967.7214965820315	1313.952392578125	111.9630279541015	-934.2705078125002	1438.133544921875	111.5638122558593	-873.6669921875002	1439.149291992188	27.21674537658681	-829.7523193359377	1439.710205078125	10.03612041473379	-790.1341552734377	1111.1865234375	-73.43616485595714	-831.9385375976565	1086.701904296875	1.980215549468893	-823.0451660156252	1067.02490234375	-56.49444580078136	-603.3980102539064	926.4993286132815	5.76764106750481	-630.3780517578126	899.0693969726565	-59.96602630615244	-534.7719726562501	865.029724121094	7.655368328094418	-609.5150756835939	830.6785278320315	-55.07767868042001	-985.0994873046877	1327.89404296875	289.0358886718749	-954.1318969726565	1448.224853515625	283.9859924316406	-927.2850341796877	1456.84765625	382.6223144531249	-900.046081542969	1454.918701171875	420.6459350585938	-939.1596069335941	1127.590209960938	489.5144958496094	-961.080993652344	1118.707397460938	420.6103210449219	-969.5405883789065	1096.312866210938	455.2091369628906	-798.2229003906253	891.5674438476565	473.2365112304688	-870.4332275390628	879.4536743164065	510.8119812011719	-765.8438110351565	809.1768798828127	481.0152587890625	-862.4967041015628	805.8311157226565	517.818115234375	
60	0.59	-754.6898803710939	993.9989013671877	113.696189880371	-937.234069824219	1012.721313476563	178.1745452880859	-940.988708496094	1016.895751953125	276.0363464355468	-771.6425781250002	1007.007995605469	354.0912170410156	-843.1677856445315	898.5637207031252	59.18505477905264	-850.9594726562502	479.8493652343751	102.930320739746	-853.4152832031252	476.6653137207032	221.1201171874999	-871.1673583984377	410.552459716797	101.0313644409179	-816.4354248046877	395.7827453613282	159.7350769042968	-953.1702270507815	79.88240051269533	173.5951385498046	-921.9162597656252	87.98988342285158	264.0178222656249	-1003.746765136719	28.75902557373048	219.0924987792968	-797.879577636719	19.68420028686524	230.909683227539	-798.499938964844	36.66510391235352	168.809585571289	-857.0372314453127	25.4211597442627	122.3071060180663	-864.2088012695315	913.683288574219	406.1152038574219	-690.3450317382814	512.1370239257814	402.5195617675782	-660.3078613281251	507.0826721191407	278.6492919921875	-701.9899291992189	447.9217834472657	407.9347839355469	-627.0045776367189	432.6386108398439	359.5197143554688	-784.264343261719	111.828353881836	354.3537597656249	-732.2102050781251	124.8590850830078	275.5673828124999	-825.5408325195315	67.8521194458008	297.4302673339843	-623.6687622070314	48.66993713378908	318.3361511230469	-637.5029907226564	54.98191070556642	368.6309509277344	-697.7954101562501	43.99578475952149	406.62646484375	-875.6268310546877	1516.781005859375	203.6612396240234	-944.154235839844	1290.826416015625	211.6160736083984	-711.6961669921876	1283.015747070313	230.4468841552734	-762.7363891601564	1435.467895507813	220.1029357910156	-960.6177368164065	1313.62890625	111.8704071044921	-926.9839477539065	1437.70556640625	111.7165222167968	-866.2163696289065	1438.721923828125	27.39587593078603	-822.2562255859377	1439.244506835938	10.28289222717275	-781.5676879882815	1110.75537109375	-73.14742279052746	-823.7988281250002	1086.133911132813	2.089426040649314	-814.5383911132815	1066.2392578125	-56.41609573364269	-593.7523803710939	928.1989746093752	8.405143737792898	-619.9240722656251	900.206970214844	-57.35389328002939	-524.4564208984376	867.5467529296877	11.082778930664	-598.2974853515626	832.1038208007815	-52.10303878784188	-978.0812988281252	1327.330688476563	289.0610351562499	-946.8907470703127	1447.567504882813	284.1575012207031	-920.0914306640627	1455.99365234375	382.8118591308593	-892.8848266601565	1453.967041015625	420.8580322265625	-932.6756591796878	1126.60498046875	489.2817077636719	-954.5258789062502	1117.85693359375	420.2302856445312	-963.043151855469	1095.4697265625	454.8399353027344	-792.1583251953128	890.3581542968752	473.1654052734375	-864.4771118164066	878.3778076171877	510.5769958496094	-759.997009277344	807.8710937500002	480.9608154296875	-856.7415771484378	804.7382812500002	517.5479125976562	
61	0.6	-748.3891601562501	993.1812133789065	113.5788269042968	-930.667175292969	1011.799865722656	178.6895599365234	-934.1505126953127	1016.002014160156	276.5476989746093	-764.4349365234376	1006.282348632813	354.0393981933593	-837.1900634765627	897.729675292969	59.24657058715812	-847.815368652344	479.2725219726564	103.1638031005859	-850.1767578125002	476.0632324218751	221.3492889404296	-868.467956542969	410.1484680175782	101.268699645996	-813.8411254882815	394.9243774414064	159.9173736572265	-952.9215087890627	80.03347015380861	173.7001953124999	-921.6367187500002	87.9324417114258	264.1745910644531	-1003.746276855469	28.98166656494141	219.1125488281249	-797.872009277344	19.66968154907227	230.9243927001953	-798.439636230469	36.65387344360352	168.7978210449218	-857.0233154296877	25.41511726379395	122.2980575561523	-856.8233642578127	912.8809814453127	406.1822814941406	-682.2676391601564	511.0464172363282	401.2135925292969	-652.9713134765626	506.3000793457032	277.0991516113281	-691.7733764648439	446.2458801269532	406.8685913085938	-616.7209472656251	433.4742736816407	357.9583740234375	-757.7486572265626	106.0337066650391	354.8523254394531	-706.4798583984376	121.3307189941407	275.7546081542968	-797.1311645507815	60.35850524902345	298.1321411132812	-594.7129516601564	49.22118377685548	317.7839660644531	-608.4484252929689	55.15937805175783	368.1702575683594	-667.9390869140626	41.85934829711915	406.6154479980469	-868.2070312500002	1515.98486328125	204.0279693603515	-937.0234985351565	1290.198364257813	211.7242279052734	-704.6350708007814	1281.989013671875	230.5439300537109	-755.3984375000001	1434.533325195313	220.389404296875	-953.4558105468752	1313.242431640625	111.813507080078	-919.6309814453127	1437.208251953125	111.9169998168944	-858.6998291015627	1438.244262695313	27.63393020629873	-814.693786621094	1438.725463867188	10.58774566650381	-773.0982666015627	1110.23388671875	-72.74134826660168	-815.7302856445315	1085.514892578125	2.321691274642845	-806.1508789062502	1065.395141601563	-56.20791244506847	-584.4082031250001	929.6602783203127	11.18326377868645	-609.7875366210939	901.1337890625002	-54.60254287719736	-514.5428466796876	869.7304687500002	14.69473171234125	-587.4987792968751	833.2974243164065	-48.9564971923829	-971.0151367187502	1326.677612304688	289.1311340332031	-939.6037597656252	1446.8203125	284.3813476562499	-912.8545532226565	1455.048706054688	383.0536499023437	-885.6814575195315	1452.923828125	421.1233520507812	-926.1488647460941	1125.53271484375	489.1031799316406	-947.9319458007815	1116.914794921875	419.9004211425781	-956.5103759765627	1094.541137695313	454.5255126953125	-786.0487670898441	889.062438964844	473.1057434082031	-858.4627685546878	877.215515136719	510.3696594238281	-754.0991821289065	806.4866943359377	480.8976135253906	-850.9242553710941	803.5591430664065	517.2984008789062	
62	0.61	-742.0429687500001	992.3287353515627	113.4762268066406	-924.0314941406252	1010.778869628906	179.2893981933593	-927.2039794921877	1014.977661132813	277.1502075195312	-757.1020507812501	1005.433288574219	354.0100708007812	-831.1810302734377	896.8726806640627	59.30892944335929	-844.6362915039065	478.6837768554689	103.3928604125976	-846.8753051757815	475.4385986328126	221.5823211669921	-865.7561035156252	409.7399902343751	101.4994659423827	-811.1731567382815	394.0427246093751	160.0700531005859	-952.6802368164065	80.20991516113283	173.8140563964843	-921.3496704101565	87.8900604248047	264.3265075683593	-1003.741149902344	29.24290084838868	219.1370239257812	-797.880310058594	19.65055656433106	230.9374237060547	-798.3852539062502	36.63880920410157	168.7824249267578	-857.0155029296877	25.40349960327149	122.2804412841796	-849.3270263671877	911.9114379882815	406.241455078125	-674.5937500000001	509.6822814941407	399.9843444824219	-646.0741577148439	505.1491699218751	275.6099853515625	-681.9355468750001	444.4306640625001	405.8666381835938	-606.8738403320314	434.1547851562501	356.4606628417969	-731.2117309570314	100.9395217895508	355.3583984374999	-680.8492431640626	118.4092102050782	275.9253234863281	-768.6037597656252	53.67865371704103	298.7790832519531	-566.0189819335939	50.41787338256837	317.0555419921875	-579.5964355468751	55.95058441162111	367.5405883789062	-638.1754760742189	40.41325759887696	406.4702758789063	-860.7406005859377	1515.099975585938	204.4445648193359	-929.8787231445315	1289.496215820313	211.9035034179687	-697.5407714843751	1280.867065429688	230.6898803710937	-748.0120239257814	1433.512451171875	220.737319946289	-946.236022949219	1312.78662109375	111.7981491088866	-912.2139282226565	1436.63818359375	112.1658401489257	-851.1196899414065	1437.71142578125	27.93067741394033	-807.066833496094	1438.148315429688	10.9494686126708	-764.7171630859376	1109.618286132813	-72.21891021728527	-807.7246704101565	1084.838623046875	2.66876530647268	-797.8657836914065	1064.494018554688	-55.8733253479005	-575.3609619140626	930.8665161132815	14.09272098541253	-599.9688110351564	901.8306274414065	-51.71992874145516	-505.0203857421876	871.5650634765627	18.47642898559565	-577.1196289062501	834.2348632812502	-45.64190292358406	-963.8975830078127	1325.927001953125	289.2466735839843	-932.2705688476565	1445.97802734375	284.6570739746093	-905.5740356445315	1454.008422851563	383.3463134765624	-878.4359130859377	1451.785766601563	421.4397277832031	-919.5798950195316	1124.373168945313	488.9824829101562	-941.2822265625002	1115.871948242188	419.6305847167969	-949.934020996094	1093.520751953125	454.272705078125	-779.8901977539066	887.6804199218752	473.0586547851562	-852.3846435546878	875.9661254882815	510.193115234375	-748.140808105469	805.027282714844	480.8267517089844	-845.0346679687503	802.2925415039065	517.072509765625	
